<?xml version="1.0" standalone="yes"?>

<svg version="1.1" viewBox="0.0 0.0 961.4199475065617 721.4199475065617" fill="none" stroke="none" stroke-linecap="square" stroke-miterlimit="10" xmlns="http://www.w3.org/2000/svg" xmlns:xlink="http://www.w3.org/1999/xlink"><clipPath id="p.0"><path d="m0 0l961.4199 0l0 721.4199l-961.4199 0l0 -721.4199z" clip-rule="nonzero"></path></clipPath><g clip-path="url(#p.0)"><path fill="#000000" fill-opacity="0.0" d="m0 0l961.4199 0l0 721.4199l-961.4199 0z" fill-rule="evenodd"></path><path fill="#434343" d="m171.98688 318.21536l0 0c0 -33.479675 19.353516 -65.57716 53.7724 -89.18057c34.418854 -23.603409 81.06113 -36.76381 129.5922 -36.565247l-0.5082092 59.107635l0 0c-32.766785 -0.082458496 -64.243835 6.901886 -87.46753 19.407898c-23.22371 12.506012 -36.27974 29.502838 -36.27974 47.230286z" fill-rule="evenodd"></path><path stroke="#434343" stroke-width="1.0" stroke-linejoin="round" stroke-linecap="butt" d="m171.98688 318.21536l0 0c0 -33.479675 19.353516 -65.57716 53.7724 -89.18057c34.418854 -23.603409 81.06113 -36.76381 129.5922 -36.565247l-0.5082092 59.107635l0 0c-32.766785 -0.082458496 -64.243835 6.901886 -87.46753 19.407898c-23.22371 12.506012 -36.27974 29.502838 -36.27974 47.230286z" fill-rule="evenodd"></path><path fill="#434343" d="m171.98688 403.19235l0 0c0 33.479706 19.353516 65.57718 53.7724 89.1806c34.418854 23.603424 81.06113 36.763824 129.5922 36.565216l-0.5082092 -59.107605l0 0c-32.766785 0.082458496 -64.243835 -6.9019165 -87.46753 -19.407928c-23.22371 -12.506012 -36.27974 -29.502838 -36.27974 -47.230286z" fill-rule="evenodd"></path><path stroke="#434343" stroke-width="1.0" stroke-linejoin="round" stroke-linecap="butt" d="m171.98688 403.19235l0 0c0 33.479706 19.353516 65.57718 53.7724 89.1806c34.418854 23.603424 81.06113 36.763824 129.5922 36.565216l-0.5082092 -59.107605l0 0c-32.766785 0.082458496 -64.243835 -6.9019165 -87.46753 -19.407928c-23.22371 -12.506012 -36.27974 -29.502838 -36.27974 -47.230286z" fill-rule="evenodd"></path><path fill="#434343" d="m789.43304 318.21536l0 0c0 -33.479675 -19.353516 -65.57716 -53.77234 -89.18057c-34.418884 -23.603409 -81.06116 -36.76381 -129.59222 -36.565247l0.5081787 59.107635l0 0c32.766785 -0.082458496 64.243835 6.901886 87.46759 19.407898c23.223694 12.506012 36.279724 29.502838 36.279724 47.230286z" fill-rule="evenodd"></path><path stroke="#434343" stroke-width="1.0" stroke-linejoin="round" stroke-linecap="butt" d="m789.43304 318.21536l0 0c0 -33.479675 -19.353516 -65.57716 -53.77234 -89.18057c-34.418884 -23.603409 -81.06116 -36.76381 -129.59222 -36.565247l0.5081787 59.107635l0 0c32.766785 -0.082458496 64.243835 6.901886 87.46759 19.407898c23.223694 12.506012 36.279724 29.502838 36.279724 47.230286z" fill-rule="evenodd"></path><path fill="#434343" d="m789.43304 403.1929l0 0c0 33.479706 -19.353516 65.57718 -53.77234 89.18057c-34.418884 23.603394 -81.06116 36.763794 -129.59222 36.565247l0.5081787 -59.107635l0 0c32.766785 0.082458496 64.243835 -6.901886 87.46759 -19.407898c23.223694 -12.506012 36.279724 -29.502838 36.279724 -47.230286z" fill-rule="evenodd"></path><path stroke="#434343" stroke-width="1.0" stroke-linejoin="round" stroke-linecap="butt" d="m789.43304 403.1929l0 0c0 33.479706 -19.353516 65.57718 -53.77234 89.18057c-34.418884 23.603394 -81.06116 36.763794 -129.59222 36.565247l0.5081787 -59.107635l0 0c32.766785 0.082458496 64.243835 -6.901886 87.46759 -19.407898c23.223694 -12.506012 36.279724 -29.502838 36.279724 -47.230286z" fill-rule="evenodd"></path><path fill="#434343" d="m348.26852 470.83798l265.41733 0l0 58.11026l-265.41733 0z" fill-rule="evenodd"></path><path stroke="#434343" stroke-width="1.0" stroke-linejoin="round" stroke-linecap="butt" d="m348.26852 470.83798l265.41733 0l0 58.11026l-265.41733 0z" fill-rule="evenodd"></path><path fill="#434343" d="m348.26852 192.46733l265.41733 0l0 58.110245l-265.41733 0z" fill-rule="evenodd"></path><path stroke="#434343" stroke-width="1.0" stroke-linejoin="round" stroke-linecap="butt" d="m348.26852 192.46733l265.41733 0l0 58.110245l-265.41733 0z" fill-rule="evenodd"></path><path fill="#434343" d="m613.6861 414.77298l-178.27377 -108.12601l-87.143524 0l178.2738 108.12601z" fill-rule="evenodd"></path><path stroke="#434343" stroke-width="1.0" stroke-linejoin="round" stroke-linecap="butt" d="m613.6861 414.77298l-178.27377 -108.12601l-87.143524 0l178.2738 108.12601z" fill-rule="evenodd"></path><path fill="#434343" d="m82.538055 147.74278l0 0c0 -24.700607 20.023804 -44.72441 44.72441 -44.72441l0 0c11.861649 0 23.237488 4.712021 31.624939 13.09948c8.387451 8.387451 13.099472 19.763283 13.099472 31.624931l0 0c0 24.700607 -20.023804 44.72441 -44.72441 44.72441l0 0c-24.700607 0 -44.72441 -20.023804 -44.72441 -44.72441z" fill-rule="evenodd"></path><path stroke="#434343" stroke-width="1.0" stroke-linejoin="round" stroke-linecap="butt" d="m82.538055 147.74278l0 0c0 -24.700607 20.023804 -44.72441 44.72441 -44.72441l0 0c11.861649 0 23.237488 4.712021 31.624939 13.09948c8.387451 8.387451 13.099472 19.763283 13.099472 31.624931l0 0c0 24.700607 -20.023804 44.72441 -44.72441 44.72441l0 0c-24.700607 0 -44.72441 -20.023804 -44.72441 -44.72441z" fill-rule="evenodd"></path><path fill="#434343" d="m789.43304 573.67194l0 0c0 -24.700623 20.023804 -44.724426 44.724426 -44.724426l0 0c11.861633 0 23.237488 4.712036 31.624939 13.099487c8.387451 8.387451 13.099487 19.763245 13.099487 31.624939l0 0c0 24.700562 -20.023804 44.724365 -44.724426 44.724365l0 0c-24.700623 0 -44.724426 -20.023804 -44.724426 -44.724365z" fill-rule="evenodd"></path><path stroke="#434343" stroke-width="1.0" stroke-linejoin="round" stroke-linecap="butt" d="m789.43304 573.67194l0 0c0 -24.700623 20.023804 -44.724426 44.724426 -44.724426l0 0c11.861633 0 23.237488 4.712036 31.624939 13.099487c8.387451 8.387451 13.099487 19.763245 13.099487 31.624939l0 0c0 24.700562 -20.023804 44.724365 -44.724426 44.724365l0 0c-24.700623 0 -44.724426 -20.023804 -44.724426 -44.724365z" fill-rule="evenodd"></path></g></svg>

